# xmcd CD database file
#
# Track frame offsets:
#	150
#	19922
#	38180
#	57898
#
# Disc length: 1012 seconds
#
# Revision: 1
# Processed by: cddbd v1.5PL3 Copyright (c) Steve Scherf et al.
# Submitted via: CDex 1.50Beta7
#
DISCID=2c03f204
DTITLE=涼宮茜（上原ともみ） - Portrait＊3 茜
DYEAR=2003
DGENRE=Anime
TTITLE0=Innocence
TTITLE1=オレンジ色の空と涙
TTITLE2=Innocence（Off Vocal）
TTITLE3=オレンジ色の空と涙（Off Vocal）
EXTD=YEAR: 2003
EXTT0=
EXTT1=
EXTT2=
EXTT3=
PLAYORDER=
